<svg xmlns="http://www.w3.org/2000/svg" viewBox="0 0 1128 640" width="1128" height="640" role="img" aria-label="Placeholder frame at 120 degrees">
  <defs>
    <linearGradient id="bg" x1="0" y1="0" x2="0.6" y2="1">
      <stop offset="0%" stop-color="#26231d"/><stop offset="60%" stop-color="#1c1a16"/><stop offset="100%" stop-color="#100f0d"/>
    </linearGradient>
    <radialGradient id="pool" cx="0.5" cy="0.5" r="0.5">
      <stop offset="0%" stop-color="#000000" stop-opacity="0.55"/><stop offset="100%" stop-color="#000000" stop-opacity="0"/>
    </radialGradient>
  </defs>
  <rect width="1128" height="640" fill="url(#bg)"/>
  <ellipse cx="564" cy="428" rx="300" ry="54" fill="url(#pool)"/>
  <polygon points="529.7,299.9 337.6,326.7 337.6,255.7 529.7,228.9" fill="rgb(56,50,41)" stroke="#0f0e0c" stroke-opacity="0.35" stroke-width="1.2"/>
  <ellipse cx="578.3" cy="367.2" rx="47.2" ry="11.8" fill="#000000" fill-opacity="0.35"/><ellipse cx="578.3" cy="328.3" rx="26.1" ry="40.1" fill="#14130f" stroke="#4a4238" stroke-width="2"/><ellipse cx="578.3" cy="328.3" rx="11.0" ry="16.5" fill="#2b2721"/>
  <polygon points="588.2,258.0 412.4,282.5 412.4,218.4 588.2,193.8" fill="rgb(54,49,40)" stroke="#0f0e0c" stroke-opacity="0.35" stroke-width="1.2"/>
  <ellipse cx="382.1" cy="394.6" rx="47.2" ry="11.8" fill="#000000" fill-opacity="0.35"/><ellipse cx="382.1" cy="355.7" rx="26.1" ry="40.1" fill="#14130f" stroke="#4a4238" stroke-width="2"/><ellipse cx="382.1" cy="355.7" rx="11.0" ry="16.5" fill="#2b2721"/>
  <polygon points="790.4,409.1 529.7,299.9 529.7,228.9 790.4,338.1" fill="rgb(63,55,43)" stroke="#0f0e0c" stroke-opacity="0.35" stroke-width="1.2"/>
  <polygon points="736.8,320.3 588.2,258.0 588.2,193.8 736.8,256.1" fill="rgb(59,52,41)" stroke="#0f0e0c" stroke-opacity="0.35" stroke-width="1.2"/>
  <polygon points="790.4,409.1 529.7,299.9 337.6,326.7 598.3,436.0" fill="rgb(67,58,44)" stroke="#0f0e0c" stroke-opacity="0.35" stroke-width="1.2"/>
  <polygon points="790.4,338.1 529.7,228.9 337.6,255.7 598.3,365.0" fill="rgb(67,58,44)" stroke="#0f0e0c" stroke-opacity="0.35" stroke-width="1.2"/>
  <polygon points="736.8,320.3 588.2,258.0 412.4,282.5 561.1,344.8" fill="rgb(62,54,42)" stroke="#0f0e0c" stroke-opacity="0.35" stroke-width="1.2"/>
  <polygon points="736.8,256.1 588.2,193.8 412.4,218.4 561.1,280.7" fill="rgb(62,54,42)" stroke="#0f0e0c" stroke-opacity="0.35" stroke-width="1.2"/>
  <polygon points="598.3,436.0 337.6,326.7 337.6,255.7 598.3,365.0" fill="rgb(63,55,43)" stroke="#0f0e0c" stroke-opacity="0.35" stroke-width="1.2"/>
  <polygon points="561.1,344.8 412.4,282.5 412.4,218.4 561.1,280.7" fill="rgb(59,52,41)" stroke="#0f0e0c" stroke-opacity="0.35" stroke-width="1.2"/>
  <ellipse cx="750.6" cy="439.4" rx="47.2" ry="11.8" fill="#000000" fill-opacity="0.35"/><ellipse cx="750.6" cy="400.5" rx="26.1" ry="40.1" fill="#14130f" stroke="#4a4238" stroke-width="2"/><ellipse cx="750.6" cy="400.5" rx="11.0" ry="16.5" fill="#2b2721"/>
  <polygon points="736.8,320.3 561.1,344.8 561.1,280.7 736.8,256.1" fill="rgb(54,49,40)" stroke="#0f0e0c" stroke-opacity="0.35" stroke-width="1.2"/>
  <ellipse cx="554.4" cy="466.8" rx="47.2" ry="11.8" fill="#000000" fill-opacity="0.35"/><ellipse cx="554.4" cy="427.9" rx="26.1" ry="40.1" fill="#14130f" stroke="#4a4238" stroke-width="2"/><ellipse cx="554.4" cy="427.9" rx="11.0" ry="16.5" fill="#2b2721"/>
  <polygon points="790.4,409.1 598.3,436.0 598.3,365.0 790.4,338.1" fill="rgb(56,50,41)" stroke="#0f0e0c" stroke-opacity="0.35" stroke-width="1.2"/>
  <text x="564" y="606" text-anchor="middle" font-family="ui-sans-serif, system-ui, sans-serif" font-size="19" letter-spacing="5" fill="#b08a4a" fill-opacity="0.75">PLACEHOLDER · 120°</text>
</svg>
