<svg xmlns="http://www.w3.org/2000/svg" viewBox="0 0 1128 640" width="1128" height="640" role="img" aria-label="Placeholder frame at 210 degrees">
  <defs>
    <linearGradient id="bg" x1="0" y1="0" x2="0.6" y2="1">
      <stop offset="0%" stop-color="#26231d"/><stop offset="60%" stop-color="#1c1a16"/><stop offset="100%" stop-color="#100f0d"/>
    </linearGradient>
    <radialGradient id="pool" cx="0.5" cy="0.5" r="0.5">
      <stop offset="0%" stop-color="#000000" stop-opacity="0.55"/><stop offset="100%" stop-color="#000000" stop-opacity="0"/>
    </radialGradient>
  </defs>
  <rect width="1128" height="640" fill="url(#bg)"/>
  <ellipse cx="564" cy="428" rx="300" ry="54" fill="url(#pool)"/>
  <ellipse cx="660.6" cy="370.9" rx="47.2" ry="11.8" fill="#000000" fill-opacity="0.35"/><ellipse cx="660.6" cy="331.9" rx="15.8" ry="40.1" fill="#14130f" stroke="#4a4238" stroke-width="2"/><ellipse cx="660.6" cy="331.9" rx="6.6" ry="16.5" fill="#2b2721"/>
  <polygon points="734.4,313.1 845.3,359.6 845.3,288.6 734.4,242.1" fill="rgb(63,55,43)" stroke="#0f0e0c" stroke-opacity="0.35" stroke-width="1.2"/>
  <polygon points="660.4,255.1 402.9,291.1 402.9,227.0 660.4,191.0" fill="rgb(54,49,40)" stroke="#0f0e0c" stroke-opacity="0.35" stroke-width="1.2"/>
  <polygon points="734.4,313.1 282.7,376.2 282.7,305.2 734.4,242.1" fill="rgb(56,50,41)" stroke="#0f0e0c" stroke-opacity="0.35" stroke-width="1.2"/>
  <polygon points="660.4,255.1 761.9,297.6 761.9,233.5 660.4,191.0" fill="rgb(59,52,41)" stroke="#0f0e0c" stroke-opacity="0.35" stroke-width="1.2"/>
  <ellipse cx="362.2" cy="412.5" rx="47.2" ry="11.8" fill="#000000" fill-opacity="0.35"/><ellipse cx="362.2" cy="373.6" rx="15.8" ry="40.1" fill="#14130f" stroke="#4a4238" stroke-width="2"/><ellipse cx="362.2" cy="373.6" rx="6.6" ry="16.5" fill="#2b2721"/>
  <polygon points="660.4,255.1 402.9,291.1 504.4,333.6 761.9,297.6" fill="rgb(62,54,42)" stroke="#0f0e0c" stroke-opacity="0.35" stroke-width="1.2"/>
  <polygon points="660.4,191.0 402.9,227.0 504.4,269.5 761.9,233.5" fill="rgb(62,54,42)" stroke="#0f0e0c" stroke-opacity="0.35" stroke-width="1.2"/>
  <polygon points="734.4,313.1 282.7,376.2 393.6,422.7 845.3,359.6" fill="rgb(67,58,44)" stroke="#0f0e0c" stroke-opacity="0.35" stroke-width="1.2"/>
  <polygon points="734.4,242.1 282.7,305.2 393.6,351.7 845.3,288.6" fill="rgb(67,58,44)" stroke="#0f0e0c" stroke-opacity="0.35" stroke-width="1.2"/>
  <ellipse cx="773.9" cy="418.3" rx="47.2" ry="11.8" fill="#000000" fill-opacity="0.35"/><ellipse cx="773.9" cy="379.4" rx="15.8" ry="40.1" fill="#14130f" stroke="#4a4238" stroke-width="2"/><ellipse cx="773.9" cy="379.4" rx="6.6" ry="16.5" fill="#2b2721"/>
  <polygon points="402.9,291.1 504.4,333.6 504.4,269.5 402.9,227.0" fill="rgb(59,52,41)" stroke="#0f0e0c" stroke-opacity="0.35" stroke-width="1.2"/>
  <polygon points="761.9,297.6 504.4,333.6 504.4,269.5 761.9,233.5" fill="rgb(54,49,40)" stroke="#0f0e0c" stroke-opacity="0.35" stroke-width="1.2"/>
  <polygon points="845.3,359.6 393.6,422.7 393.6,351.7 845.3,288.6" fill="rgb(56,50,41)" stroke="#0f0e0c" stroke-opacity="0.35" stroke-width="1.2"/>
  <polygon points="282.7,376.2 393.6,422.7 393.6,351.7 282.7,305.2" fill="rgb(63,55,43)" stroke="#0f0e0c" stroke-opacity="0.35" stroke-width="1.2"/>
  <ellipse cx="475.5" cy="460.0" rx="47.2" ry="11.8" fill="#000000" fill-opacity="0.35"/><ellipse cx="475.5" cy="421.1" rx="15.8" ry="40.1" fill="#14130f" stroke="#4a4238" stroke-width="2"/><ellipse cx="475.5" cy="421.1" rx="6.6" ry="16.5" fill="#2b2721"/>
  <text x="564" y="606" text-anchor="middle" font-family="ui-sans-serif, system-ui, sans-serif" font-size="19" letter-spacing="5" fill="#b08a4a" fill-opacity="0.75">PLACEHOLDER · 210°</text>
</svg>
