<svg xmlns="http://www.w3.org/2000/svg" viewBox="0 0 1128 640" width="1128" height="640" role="img" aria-label="Placeholder frame at 270 degrees">
  <defs>
    <linearGradient id="bg" x1="0" y1="0" x2="0.6" y2="1">
      <stop offset="0%" stop-color="#26231d"/><stop offset="60%" stop-color="#1c1a16"/><stop offset="100%" stop-color="#100f0d"/>
    </linearGradient>
    <radialGradient id="pool" cx="0.5" cy="0.5" r="0.5">
      <stop offset="0%" stop-color="#000000" stop-opacity="0.55"/><stop offset="100%" stop-color="#000000" stop-opacity="0"/>
    </radialGradient>
  </defs>
  <rect width="1128" height="640" fill="url(#bg)"/>
  <ellipse cx="564" cy="428" rx="300" ry="54" fill="url(#pool)"/>
  <polygon points="453.1,304.8 674.9,304.8 674.9,233.8 453.1,233.8" fill="rgb(61,54,42)" stroke="#0f0e0c" stroke-opacity="0.35" stroke-width="1.2"/>
  <ellipse cx="450.7" cy="373.2" rx="47.2" ry="11.8" fill="#000000" fill-opacity="0.35"/><ellipse cx="450.7" cy="334.3" rx="40.1" ry="40.1" fill="#14130f" stroke="#4a4238" stroke-width="2"/><ellipse cx="450.7" cy="334.3" rx="16.8" ry="16.5" fill="#2b2721"/>
  <ellipse cx="677.3" cy="373.2" rx="47.2" ry="11.8" fill="#000000" fill-opacity="0.35"/><ellipse cx="677.3" cy="334.3" rx="40.1" ry="40.1" fill="#14130f" stroke="#4a4238" stroke-width="2"/><ellipse cx="677.3" cy="334.3" rx="16.8" ry="16.5" fill="#2b2721"/>
  <polygon points="462.5,255.8 665.5,255.8 665.5,191.7 462.5,191.7" fill="rgb(57,51,41)" stroke="#0f0e0c" stroke-opacity="0.35" stroke-width="1.2"/>
  <polygon points="462.5,255.8 462.5,327.8 462.5,263.6 462.5,191.7" fill="rgb(56,50,41)" stroke="#0f0e0c" stroke-opacity="0.35" stroke-width="1.2"/>
  <polygon points="462.5,255.8 462.5,327.8 665.5,327.8 665.5,255.8" fill="rgb(62,54,42)" stroke="#0f0e0c" stroke-opacity="0.35" stroke-width="1.2"/>
  <polygon points="462.5,191.7 462.5,263.6 665.5,263.6 665.5,191.7" fill="rgb(62,54,42)" stroke="#0f0e0c" stroke-opacity="0.35" stroke-width="1.2"/>
  <polygon points="665.5,255.8 665.5,327.8 665.5,263.6 665.5,191.7" fill="rgb(56,50,41)" stroke="#0f0e0c" stroke-opacity="0.35" stroke-width="1.2"/>
  <polygon points="453.1,304.8 453.1,431.0 674.9,431.0 674.9,304.8" fill="rgb(67,58,44)" stroke="#0f0e0c" stroke-opacity="0.35" stroke-width="1.2"/>
  <polygon points="453.1,233.8 453.1,360.0 674.9,360.0 674.9,233.8" fill="rgb(67,58,44)" stroke="#0f0e0c" stroke-opacity="0.35" stroke-width="1.2"/>
  <polygon points="453.1,304.8 453.1,431.0 453.1,360.0 453.1,233.8" fill="rgb(59,53,42)" stroke="#0f0e0c" stroke-opacity="0.35" stroke-width="1.2"/>
  <polygon points="674.9,304.8 674.9,431.0 674.9,360.0 674.9,233.8" fill="rgb(59,53,42)" stroke="#0f0e0c" stroke-opacity="0.35" stroke-width="1.2"/>
  <polygon points="462.5,327.8 665.5,327.8 665.5,263.6 462.5,263.6" fill="rgb(57,51,41)" stroke="#0f0e0c" stroke-opacity="0.35" stroke-width="1.2"/>
  <ellipse cx="450.7" cy="456.5" rx="47.2" ry="11.8" fill="#000000" fill-opacity="0.35"/><ellipse cx="450.7" cy="417.6" rx="40.1" ry="40.1" fill="#14130f" stroke="#4a4238" stroke-width="2"/><ellipse cx="450.7" cy="417.6" rx="16.8" ry="16.5" fill="#2b2721"/>
  <ellipse cx="677.3" cy="456.5" rx="47.2" ry="11.8" fill="#000000" fill-opacity="0.35"/><ellipse cx="677.3" cy="417.6" rx="40.1" ry="40.1" fill="#14130f" stroke="#4a4238" stroke-width="2"/><ellipse cx="677.3" cy="417.6" rx="16.8" ry="16.5" fill="#2b2721"/>
  <polygon points="453.1,431.0 674.9,431.0 674.9,360.0 453.1,360.0" fill="rgb(61,54,42)" stroke="#0f0e0c" stroke-opacity="0.35" stroke-width="1.2"/>
  <text x="564" y="606" text-anchor="middle" font-family="ui-sans-serif, system-ui, sans-serif" font-size="19" letter-spacing="5" fill="#b08a4a" fill-opacity="0.75">PLACEHOLDER · 270°</text>
</svg>
