<svg xmlns="http://www.w3.org/2000/svg" viewBox="0 0 1128 640" width="1128" height="640" role="img" aria-label="Placeholder frame at 255 degrees">
  <defs>
    <linearGradient id="bg" x1="0" y1="0" x2="0.6" y2="1">
      <stop offset="0%" stop-color="#26231d"/><stop offset="60%" stop-color="#1c1a16"/><stop offset="100%" stop-color="#100f0d"/>
    </linearGradient>
    <radialGradient id="pool" cx="0.5" cy="0.5" r="0.5">
      <stop offset="0%" stop-color="#000000" stop-opacity="0.55"/><stop offset="100%" stop-color="#000000" stop-opacity="0"/>
    </radialGradient>
  </defs>
  <rect width="1128" height="640" fill="url(#bg)"/>
  <ellipse cx="564" cy="428" rx="300" ry="54" fill="url(#pool)"/>
  <polygon points="524.4,300.0 738.6,313.9 738.6,242.9 524.4,229.0" fill="rgb(63,55,43)" stroke="#0f0e0c" stroke-opacity="0.35" stroke-width="1.2"/>
  <ellipse cx="500.4" cy="367.5" rx="47.2" ry="11.8" fill="#000000" fill-opacity="0.35"/><ellipse cx="500.4" cy="328.6" rx="32.9" ry="40.1" fill="#14130f" stroke="#4a4238" stroke-width="2"/><ellipse cx="500.4" cy="328.6" rx="13.8" ry="16.5" fill="#2b2721"/>
  <polygon points="510.0,250.9 706.0,263.6 706.0,199.5 510.0,186.7" fill="rgb(58,52,41)" stroke="#0f0e0c" stroke-opacity="0.35" stroke-width="1.2"/>
  <ellipse cx="719.2" cy="381.7" rx="47.2" ry="11.8" fill="#000000" fill-opacity="0.35"/><ellipse cx="719.2" cy="342.8" rx="32.9" ry="40.1" fill="#14130f" stroke="#4a4238" stroke-width="2"/><ellipse cx="719.2" cy="342.8" rx="13.8" ry="16.5" fill="#2b2721"/>
  <polygon points="510.0,250.9 433.0,320.4 433.0,256.2 510.0,186.7" fill="rgb(54,49,40)" stroke="#0f0e0c" stroke-opacity="0.35" stroke-width="1.2"/>
  <polygon points="524.4,300.0 389.4,421.9 389.4,350.9 524.4,229.0" fill="rgb(57,51,41)" stroke="#0f0e0c" stroke-opacity="0.35" stroke-width="1.2"/>
  <polygon points="510.0,250.9 433.0,320.4 629.0,333.1 706.0,263.6" fill="rgb(62,54,42)" stroke="#0f0e0c" stroke-opacity="0.35" stroke-width="1.2"/>
  <polygon points="510.0,186.7 433.0,256.2 629.0,268.9 706.0,199.5" fill="rgb(62,54,42)" stroke="#0f0e0c" stroke-opacity="0.35" stroke-width="1.2"/>
  <polygon points="524.4,300.0 389.4,421.9 603.6,435.8 738.6,313.9" fill="rgb(67,58,44)" stroke="#0f0e0c" stroke-opacity="0.35" stroke-width="1.2"/>
  <polygon points="524.4,229.0 389.4,350.9 603.6,364.8 738.6,242.9" fill="rgb(67,58,44)" stroke="#0f0e0c" stroke-opacity="0.35" stroke-width="1.2"/>
  <polygon points="706.0,263.6 629.0,333.1 629.0,268.9 706.0,199.5" fill="rgb(54,49,40)" stroke="#0f0e0c" stroke-opacity="0.35" stroke-width="1.2"/>
  <polygon points="738.6,313.9 603.6,435.8 603.6,364.8 738.6,242.9" fill="rgb(57,51,41)" stroke="#0f0e0c" stroke-opacity="0.35" stroke-width="1.2"/>
  <polygon points="433.0,320.4 629.0,333.1 629.0,268.9 433.0,256.2" fill="rgb(58,52,41)" stroke="#0f0e0c" stroke-opacity="0.35" stroke-width="1.2"/>
  <ellipse cx="411.2" cy="448.1" rx="47.2" ry="11.8" fill="#000000" fill-opacity="0.35"/><ellipse cx="411.2" cy="409.1" rx="32.9" ry="40.1" fill="#14130f" stroke="#4a4238" stroke-width="2"/><ellipse cx="411.2" cy="409.1" rx="13.8" ry="16.5" fill="#2b2721"/>
  <ellipse cx="630.1" cy="462.2" rx="47.2" ry="11.8" fill="#000000" fill-opacity="0.35"/><ellipse cx="630.1" cy="423.3" rx="32.9" ry="40.1" fill="#14130f" stroke="#4a4238" stroke-width="2"/><ellipse cx="630.1" cy="423.3" rx="13.8" ry="16.5" fill="#2b2721"/>
  <polygon points="389.4,421.9 603.6,435.8 603.6,364.8 389.4,350.9" fill="rgb(63,55,43)" stroke="#0f0e0c" stroke-opacity="0.35" stroke-width="1.2"/>
  <text x="564" y="606" text-anchor="middle" font-family="ui-sans-serif, system-ui, sans-serif" font-size="19" letter-spacing="5" fill="#b08a4a" fill-opacity="0.75">PLACEHOLDER · 255°</text>
</svg>
